<?xml version="1.0" encoding="UTF-8" standalone="no"?>
<!-- Generator: Adobe Illustrator 12.0.0, SVG Export Plug-In . SVG Version: 6.00 Build 51448)  -->

<svg
   xmlns:dc="http://purl.org/dc/elements/1.1/"
   xmlns:cc="http://creativecommons.org/ns#"
   xmlns:rdf="http://www.w3.org/1999/02/22-rdf-syntax-ns#"
   xmlns:svg="http://www.w3.org/2000/svg"
   xmlns="http://www.w3.org/2000/svg"
   xmlns:sodipodi="http://sodipodi.sourceforge.net/DTD/sodipodi-0.dtd"
   xmlns:inkscape="http://www.inkscape.org/namespaces/inkscape"
   version="1.1"
   id="Layer_1"
   width="100.244"
   height="99.979"
   viewBox="0 0 100.244 99.979"
   overflow="visible"
   enable-background="new 0 0 100.244 99.979"
   xml:space="preserve"
   inkscape:version="0.47 r22583"
   sodipodi:docname="Aiga.svg"><metadata
   id="metadata13"><rdf:RDF><cc:Work
       rdf:about=""><dc:format>image/svg+xml</dc:format><dc:type
         rdf:resource="http://purl.org/dc/dcmitype/StillImage" /></cc:Work></rdf:RDF></metadata><defs
   id="defs11"><inkscape:perspective
   sodipodi:type="inkscape:persp3d"
   inkscape:vp_x="0 : 49.989498 : 1"
   inkscape:vp_y="0 : 1000 : 0"
   inkscape:vp_z="100.244 : 49.989498 : 1"
   inkscape:persp3d-origin="50.122002 : 33.326332 : 1"
   id="perspective15" />
	
	
</defs><sodipodi:namedview
   pagecolor="#ffffff"
   bordercolor="#666666"
   borderopacity="1"
   objecttolerance="10"
   gridtolerance="10"
   guidetolerance="10"
   inkscape:pageopacity="0"
   inkscape:pageshadow="2"
   inkscape:window-width="640"
   inkscape:window-height="483"
   id="namedview9"
   showgrid="false"
   inkscape:zoom="2.3604958"
   inkscape:cx="50.122002"
   inkscape:cy="49.989498"
   inkscape:window-x="25"
   inkscape:window-y="25"
   inkscape:window-maximized="0"
   inkscape:current-layer="Layer_1" />
<g
   id="g2823"><rect
     x="0.271"
     width="99.973999"
     height="99.978996"
     id="rect5"
     y="0"
     style="fill:#231f20" /><path
     d="M 0,62.408 C 0,62.363 0.354,62.273 0.393,62.246 0.477,62.201 1.996,61.654 2.775,61.05 3.167,60.798 24.87,37.14 25.243,36.772 c 0.116,-0.096 0.244,-0.077 0.302,0.026 0.083,0.18 -0.245,22.642 -0.232,23.001 0.032,0.388 0.064,0.857 0.677,1.153 0.586,0.277 2.742,1.211 3.026,1.32 0.103,0.038 0.031,0.155 -0.155,0.155 H 16.712 c 0,0 -0.173,-0.039 -0.038,-0.097 0.134,-0.084 4.049,-1.325 4.338,-1.416 0.605,-0.212 0.76,-0.342 0.786,-1.268 0.019,-0.909 0.27,-6.193 0.27,-6.521 0,-0.323 0.103,-0.979 -0.766,-1.039 -0.406,-0.032 -1.745,-0.147 -3.136,-0.185 -1.66,-0.046 -3.393,-0.007 -3.682,0 -0.946,0.018 -1.171,0.077 -1.706,0.481 -0.419,0.323 -6.251,7.546 -6.475,7.861 -0.233,0.334 -0.168,0.695 0.444,0.881 0.63,0.194 4.332,0.953 5.175,1.12 0.123,0.033 0.097,0.181 -0.07,0.181 H 0.413 C 0.354,62.428 0,62.434 0,62.408 M 21.123,50.943 c 0.824,0 1.049,-0.297 1.049,-0.799 0,-0.341 0.096,-6.515 0.096,-7.211 0,-0.683 -0.391,-0.708 -0.843,-0.192 -0.232,0.25 -6.438,6.92 -6.773,7.299 -0.341,0.374 -0.367,0.876 0.541,0.882 0,0.001 5.106,0.021 5.93,0.021 m 45.831,11.304 c 0.076,-0.045 1.597,-0.592 2.373,-1.196 0.401,-0.252 22.103,-23.91 22.481,-24.278 0.117,-0.096 0.247,-0.077 0.291,0.026 0.09,0.18 -0.231,22.642 -0.227,23.001 0.021,0.388 0.053,0.857 0.679,1.153 0.578,0.277 2.734,1.211 3.016,1.32 0.116,0.038 0.041,0.155 -0.14,0.155 H 83.279 c 0,0 -0.181,-0.039 -0.047,-0.097 0.143,-0.084 4.052,-1.325 4.341,-1.416 0.599,-0.212 0.76,-0.342 0.785,-1.268 0.026,-0.909 0.265,-6.193 0.265,-6.521 0,-0.323 0.103,-0.979 -0.766,-1.039 -0.398,-0.032 -1.739,-0.147 -3.124,-0.185 -1.668,-0.046 -3.405,-0.007 -3.694,0 -0.939,0.018 -1.164,0.077 -1.692,0.481 -0.419,0.323 -6.257,7.546 -6.483,7.861 -0.231,0.334 -0.175,0.695 0.438,0.881 0.644,0.194 4.332,0.953 5.188,1.12 0.122,0.033 0.097,0.181 -0.077,0.181 H 66.973 C 66.85,62.428 66.869,62.293 66.954,62.247 M 87.675,50.943 c 0.825,0 1.051,-0.297 1.051,-0.799 0,-0.341 0.098,-6.515 0.098,-7.211 0,-0.683 -0.388,-0.708 -0.844,-0.192 -0.231,0.25 -6.432,6.92 -6.768,7.299 -0.341,0.374 -0.373,0.876 0.541,0.882 0,0.001 5.107,0.021 5.922,0.021 M 34.481,37.578 c -0.148,0 -0.148,0.108 0.012,0.161 0.104,0.039 2.995,1.03 3.297,1.132 0.553,0.199 0.599,0.677 0.489,1.153 -0.084,0.373 -4.803,19.829 -4.931,20.24 -0.18,0.58 -0.817,0.811 -1.076,0.915 -0.251,0.096 -2.723,0.985 -2.96,1.094 -0.188,0.084 -0.084,0.155 0.128,0.155 h 11.259 c 0.225,0 0.284,-0.155 0.065,-0.231 -0.206,-0.078 -2.814,-1.011 -3.343,-1.229 -0.506,-0.188 -0.482,-0.561 -0.398,-0.999 0.064,-0.342 4.654,-19.688 4.771,-20.068 0.154,-0.458 0.366,-0.777 0.961,-1.042 0.353,-0.155 1.067,-0.387 1.298,-0.463 0.214,-0.059 2.138,-0.63 2.318,-0.677 0.175,-0.044 0.046,-0.141 -0.082,-0.141 H 34.481 m 33.54,8.897 c 0.008,0.29 0.219,0.276 0.314,0.019 0.071,-0.174 2.376,-7.101 2.435,-7.314 0.115,-0.417 0.27,-0.998 -0.771,-1.274 -2.138,-0.56 -5.061,-0.702 -6.206,-0.702 -6.04,0 -10.687,2.871 -12.264,4.101 -2.724,2.15 -4.875,5.228 -5.758,8.504 -1.679,6.23 1.913,13.074 11.711,12.817 3.825,-0.103 7.758,-1.622 8.091,-1.739 0.332,-0.122 0.594,-0.296 0.703,-0.599 0.115,-0.303 1.501,-4.635 1.765,-5.542 0.258,-0.914 -0.695,-0.824 -1.069,-0.824 h -9.064 c -0.198,0 -0.309,0.128 -0.059,0.199 0.266,0.065 5.08,1.372 5.628,1.52 0.548,0.148 0.316,0.682 0.29,0.836 -0.038,0.162 -0.933,3.921 -1.05,4.23 -0.117,0.315 -0.187,0.47 -0.728,0.63 -0.359,0.116 -1.583,0.354 -3.264,0.315 -5.324,-0.142 -8.678,-3.58 -9.252,-7.79 -0.694,-5.118 2.764,-11.53 8.724,-14.305 3.548,-1.654 8.356,-1.235 9.36,-0.907 0.729,0.232 0.729,0.63 0.741,1.273 0.014,0.263 -0.283,6.404 -0.277,6.552"
     id="path7"
     style="fill:#ffffff" /></g>
</svg>